<?xml version="1.0" encoding="UTF-8"?>
<!DOCTYPE svg PUBLIC "-//W3C//DTD SVG 1.1//EN" "http://www.w3.org/Graphics/SVG/1.1/DTD/svg11.dtd">
<!-- Creator: CorelDRAW X7 -->
<svg xmlns="http://www.w3.org/2000/svg" xml:space="preserve" width="56.1126mm" height="16.5047mm" version="1.1" style="shape-rendering:geometricPrecision; text-rendering:geometricPrecision; image-rendering:optimizeQuality; fill-rule:evenodd; clip-rule:evenodd"
viewBox="0 0 5611 1650"
 xmlns:xlink="http://www.w3.org/1999/xlink">
 <defs>
  <style type="text/css">
   <![CDATA[
    .fil0 {fill:white}
   ]]>
  </style>
 </defs>
 <g id="Layer_x0020_1">
  <metadata id="CorelCorpID_0Corel-Layer"/>
  <g id="_1700523441904">
   <path class="fil0" d="M3495 523c0,69 12,131 36,188 24,56 60,104 110,144 49,40 111,71 186,93 75,23 164,34 268,34l869 0c59,0 102,8 129,26 27,17 41,47 41,88 0,42 -14,72 -41,90 -27,18 -70,27 -129,27l-964 0 -317 411 1243 0c121,0 225,-12 311,-36 87,-23 159,-58 214,-102 56,-45 97,-100 122,-165 26,-65 38,-139 38,-220 0,-146 -51,-256 -153,-328 -101,-73 -250,-109 -446,-109l-870 0c-57,0 -100,-8 -127,-25 -28,-17 -42,-46 -42,-87 0,-42 14,-70 42,-86 27,-16 70,-24 127,-24l1109 0 317 -416 -1387 0c-19,0 -38,1 -56,1 -38,1 -74,4 -108,8 -54,6 -103,15 -148,27 -87,24 -158,57 -213,100 -55,43 -95,96 -122,157 -16,38 -27,79 -33,123 -4,26 -6,53 -6,81l0 0z"/>
   <polygon class="fil0" points="3755,1213 3438,1624 3580,1624 3898,1213 "/>
   <path class="fil0" d="M1743 1169c-55,-113 -81,-234 -81,-359 0,-125 26,-245 82,-356 40,-80 92,-152 155,-214l0 -214 -452 0 0 939 -979 -879c-40,-37 -75,-60 -106,-70 -31,-11 -62,-16 -92,-16 -35,0 -69,6 -102,17 -32,11 -61,28 -86,52 -24,24 -44,55 -59,93 -15,39 -23,84 -23,137l0 1325 449 0 0 -938 979 879c39,36 73,60 104,70 31,10 63,15 95,15 35,0 69,-5 102,-16 34,-11 63,-29 87,-54 25,-25 45,-56 60,-94 11,-28 18,-60 21,-96 -62,-65 -113,-139 -154,-221z"/>
   <path class="fil0" d="M3653 1213l-947 0c-67,0 -129,-9 -186,-27 -57,-18 -107,-44 -149,-78 -43,-33 -75,-73 -98,-120 -23,-47 -35,-99 -35,-157 0,-57 12,-110 36,-157 24,-48 56,-89 98,-123 41,-35 91,-61 148,-80 57,-20 119,-29 186,-29l713 0c6,-53 19,-105 41,-155 32,-75 82,-138 146,-189 37,-29 78,-52 121,-72l-1021 0c-138,0 -266,19 -384,56 -118,38 -220,91 -305,160 -44,37 -84,76 -118,120 -32,40 -59,83 -82,129 -49,96 -73,202 -73,319 0,116 24,224 73,323 23,48 50,93 82,134 34,45 74,87 118,124 85,73 187,130 305,171 118,42 246,62 384,62l629 0 318 -411z"/>
  </g>
 </g>
</svg>
